<svg t="1663501906347" class="icon" viewBox="0 0 1024 1024" version="1.1" xmlns="http://www.w3.org/2000/svg" p-id="1940" width="32" height="32"><path d="M917.333333 682.666667H896V256a85.333333 85.333333 0 0 0-85.333333-85.333333h-256V106.666667a21.333333 21.333333 0 0 0-21.333334-21.333334h-42.666666a21.333333 21.333333 0 0 0-21.333334 21.333334V170.666667H213.333333a85.333333 85.333333 0 0 0-85.333333 85.333333v426.666667h-21.333333a21.333333 21.333333 0 0 0-21.333334 21.333333v42.666667a21.333333 21.333333 0 0 0 21.333334 21.333333h205.226666l-92.586666 132.266667a32.426667 32.426667 0 0 0-5.973334 18.346666v9.386667a10.666667 10.666667 0 0 0 10.666667 10.666667h50.346667a42.666667 42.666667 0 0 0 34.986666-18.346667L416 768h192l106.666667 152.32a42.666667 42.666667 0 0 0 34.986666 18.346667h50.346667a10.666667 10.666667 0 0 0 10.666667-10.666667v-9.386667a32.426667 32.426667 0 0 0-5.973334-18.346666L712.106667 768h205.226666a21.333333 21.333333 0 0 0 21.333334-21.333333v-42.666667a21.333333 21.333333 0 0 0-21.333334-21.333333z m-106.666666-27.306667a27.306667 27.306667 0 0 1-27.306667 27.306667 28.586667 28.586667 0 0 1-21.333333-10.24l-156.586667-194.986667a21.333333 21.333333 0 0 0-33.28 0l-97.706667 122.88a21.333333 21.333333 0 0 1-33.706666 0l-42.666667-58.026667a21.76 21.76 0 0 0-34.56 0l-95.146667 128a32 32 0 0 1-25.6 12.8 27.306667 27.306667 0 0 1-29.44-27.733333V256h597.333334zM405.333333 469.333333A64 64 0 1 0 341.333333 405.333333 64 64 0 0 0 405.333333 469.333333z" p-id="1941" fill="#65CC8A"></path></svg>