<!DOCTYPE svg PUBLIC "-//W3C//DTD SVG 1.1//EN" "http://www.w3.org/Graphics/SVG/1.1/DTD/svg11.dtd">

<!-- Uploaded to: SVG Repo, www.svgrepo.com, Transformed by: SVG Repo Mixer Tools -->
<svg fill="#000000" width="30px" height="30px" viewBox="0 0 22 22" xmlns="http://www.w3.org/2000/svg" id="memory-arrow-left-circle">

<g id="SVGRepo_bgCarrier" stroke-width="0"/>

<g id="SVGRepo_tracerCarrier" stroke-linecap="round" stroke-linejoin="round"/>

<g id="SVGRepo_iconCarrier">

<path d="M12 16H10V15H9V14H8V13H7V12H6V10H7V9H8V8H9V7H10V6H12V8H11V9H10V10H16V12H10V13H11V14H12V16M15 21H7V20H5V19H4V18H3V17H2V15H1V7H2V5H3V4H4V3H5V2H7V1H15V2H17V3H18V4H19V5H20V7H21V15H20V17H19V18H18V19H17V20H15V21M16 17H17V16H18V14H19V8H18V6H17V5H16V4H14V3H8V4H6V5H5V6H4V8H3V14H4V16H5V17H6V18H8V19H14V18H16V17Z"/>

</g>

</svg>