<?xml version="1.0" standalone="no"?><!DOCTYPE svg PUBLIC "-//W3C//DTD SVG 1.1//EN" "http://www.w3.org/Graphics/SVG/1.1/DTD/svg11.dtd"><svg t="1705818590143" class="icon" viewBox="0 0 1024 1024" version="1.1" xmlns="http://www.w3.org/2000/svg" p-id="15111" xmlns:xlink="http://www.w3.org/1999/xlink" width="18" height="18"><path d="M800 170.666667a138.666667 138.666667 0 0 1 138.453333 130.816L938.666667 309.333333v405.333334a138.666667 138.666667 0 0 1-130.816 138.453333L800 853.333333h-362.709333a138.666667 138.666667 0 0 1-88.96-32.256l-6.613334-5.930666-213.162666-202.666667a138.666667 138.666667 0 0 1-4.906667-196.010667l4.906667-4.949333 213.162666-202.666667a138.666667 138.666667 0 0 1 86.698667-37.888L437.290667 170.666667h362.666666z m0 64h-362.709333a74.666667 74.666667 0 0 0-46.08 15.872l-5.376 4.693333-213.162667 202.666667-2.645333 2.645333a74.666667 74.666667 0 0 0-2.346667 100.352l4.992 5.205333 213.162667 202.666667c12.117333 11.52 27.733333 18.645333 44.288 20.224l7.168 0.341333h362.666666a74.666667 74.666667 0 0 0 74.453334-68.565333l0.256-6.101333v-405.333334a74.666667 74.666667 0 0 0-68.565334-74.410666L800 234.666667z m-311.637333 123.605333l3.584 3.114667L597.333333 466.730667l105.386667-105.386667a32 32 0 0 1 48.341333 41.685333l-3.114666 3.584L642.56 512l105.386667 105.386667a32 32 0 0 1-41.642667 48.341333l-3.584-3.114667L597.333333 557.269333l-105.386666 105.386667a32 32 0 0 1-48.341334-41.685333l3.072-3.584L552.106667 512l-105.386667-105.386667a32 32 0 0 1 41.685333-48.341333z" fill="currentColor" p-id="15112"></path></svg>