<?xml version="1.0" standalone="no"?><!DOCTYPE svg PUBLIC "-//W3C//DTD SVG 1.1//EN" "http://www.w3.org/Graphics/SVG/1.1/DTD/svg11.dtd"><svg t="1705756373807" class="icon" viewBox="0 0 1066 1024" version="1.1" xmlns="http://www.w3.org/2000/svg" p-id="15154" xmlns:xlink="http://www.w3.org/1999/xlink" width="25" height="20"><path d="M298.24 366.506667C236.373333 407.68 204.8 459.946667 204.8 512c0 52.010667 31.573333 104.277333 93.44 145.493333 61.610667 41.045333 149.12 67.84 247.893333 67.84 98.773333 0 186.282667-26.794667 247.893334-67.84 61.866667-41.216 93.44-93.482667 93.44-145.493333 0-52.010667-31.573333-104.277333-93.44-145.493333C732.373333 325.376 644.864 298.666667 546.133333 298.666667c-98.773333 0-186.282667 26.752-247.893333 67.84zM250.965333 295.424C328.362667 243.84 432.853333 213.333333 546.133333 213.333333c113.28 0 217.770667 30.549333 295.210667 82.133334C918.442667 346.88 972.8 422.613333 972.8 512s-54.357333 165.12-131.456 216.533333C763.904 780.16 659.413333 810.666667 546.133333 810.666667c-113.28 0-217.770667-30.549333-295.210666-82.133334C173.824 677.12 119.466667 601.386667 119.466667 512s54.357333-165.12 131.456-216.533333z" fill="currentColor" p-id="15155"></path></svg>