<!DOCTYPE svg PUBLIC "-//W3C//DTD SVG 1.1//EN" "http://www.w3.org/Graphics/SVG/1.1/DTD/svg11.dtd">

<!-- Uploaded to: SVG Repo, www.svgrepo.com, Transformed by: SVG Repo Mixer Tools -->
<svg width="20px" height="20px" viewBox="0 -68.62 309.13 309.13" xmlns="http://www.w3.org/2000/svg" fill="currentColor">

<g id="SVGRepo_bgCarrier" stroke-width="0"/>

<g id="SVGRepo_tracerCarrier" stroke-linecap="round" stroke-linejoin="round"/>

<g id="SVGRepo_iconCarrier"> <defs> </defs> <g id="Layer_2" data-name="Layer 2"> <g id="Layer_1-2" data-name="Layer 1"> <path d="M89.68,0c16.93,12.78,35.09,21,56.38,20.55,2.3,0,4.59-.06,6.88.07a64.3,64.3,0,0,0,35.55-7.85c4.37-2.42,8.6-2.67,13.2-1.85a8.08,8.08,0,0,1,5.09,2.86c12,14.42,27.73,20.48,46.19,20.6,8.12,0,16-.64,23.46-4.15a13.82,13.82,0,0,1,5.81-1c2.25,0,4.13,2.72,3.63,4.92a26.24,26.24,0,0,1-1.32,3.12c-4.65,12.17-1.88,23.2,5.92,33,2.17,2.71,6.09,4.07,9.32,5.86,2.49,1.38,5.26,2.26,7.68,3.74a3.54,3.54,0,0,1,.19,5.87,20.31,20.31,0,0,1-2.87,1.84c-14.12,7.91-20.69,21-23.88,36-1.13,5.36.93,10.75,2.65,15.94a57.2,57.2,0,0,1,2.28,7.35c.63,3.33-1.25,5.55-4.74,5.64a33.64,33.64,0,0,1-6.76-.74c-19-3.33-36.39.36-51.73,12.4-2.24,1.76-4.26,3.83-6.44,5.67-2.93,2.47-5.43,2.7-8.59.86a15.43,15.43,0,0,1-2.1-1.5c-6.69-5.62-14.73-7.23-23.14-8-13.19-1.23-25.78,1.36-37.68,6.62-6.7,3-11.49.84-16.33-3.12-2.65-2.18-5.15-4.55-7.64-6.91a24.73,24.73,0,0,0-12.93-6.4c-15.06-2.69-30.13-3.61-45.11.76-4.93,1.44-10,2.46-14.87,4.11s-8.33-.65-11.48-3.67c-.87-.83-1-2.56-1.19-3.92-.87-5.65-1.52-11.33-2.46-17a24.82,24.82,0,0,0-12.9-18.3c-4.95-2.78-9.12-7.08-15.62-7.77L0,98c3.06-2.94,5.88-5.71,8.77-8.4,10.63-9.91,14.4-22.38,13.5-36.5A10.73,10.73,0,0,0,20,47.79c-2.75-3.66-2.57-7.3-.65-11.71,6.28.84,12.44,1.81,18.63,2.47C48,39.61,57.26,37,66.25,32.92A36.86,36.86,0,0,0,80.61,21.1c1.8-2.39,3.17-5,3.15-7.8,0-4.54,2.41-8.06,4-11.93C88,.93,88.7.7,89.68,0ZM194.84,20.36c-15.43,9.11-32.61,10.91-50.33,10.35s-34.57-4-49.91-13.77c-1.85,2.88-3.4,5.25-4.9,7.64a45.12,45.12,0,0,1-19,17c-9.12,4.34-18.77,7-29,6.82-2.49,0-5,.21-7.58.33-1.24,4.16-.63,7.9-.72,11.56A44.6,44.6,0,0,1,17.54,94.14c-1,.85-2.52,1.5-1.94,3.56,4.17,2.69,8.46,5.52,12.8,8.24a34.44,34.44,0,0,1,15,20.23c1,3.26,1.18,6.74,1.75,10.11.47,2.76,0,5.82,2.82,8.21a20.18,20.18,0,0,0,3.86-.54,90.34,90.34,0,0,1,31.26-4.72c8,.32,16,.8,24,1.71,10.57,1.22,19.9,5.19,26.92,13.63a33.67,33.67,0,0,0,4.06,3.5c24-8,48-11.37,71.22-.21,5.26-3,9.8-6,14.66-8.33a99.28,99.28,0,0,1,15.19-5.81,104.18,104.18,0,0,1,16-3.1c5.26-.64,10.6-.6,16.3-.87a55.92,55.92,0,0,0-1.45-7.14c-1.8-5.13-1-10.05.25-15.17a66,66,0,0,1,16.47-29.69c1.3-1.39,2.5-2.86,3.56-4.08-3.62-3.09-7.22-5.55-10-8.71a37.14,37.14,0,0,1-9.39-25.18c0-2.21.67-4.61-1.41-6.57a126.89,126.89,0,0,1-31.51-.33,59.93,59.93,0,0,1-29.87-12C203.69,27.6,199.53,24.12,194.84,20.36Z"/> <path d="M194.84,20.36c4.69,3.76,8.85,7.24,13.15,10.53a59.93,59.93,0,0,0,29.87,12,126.89,126.89,0,0,0,31.51.33c2.08,2,1.39,4.36,1.41,6.57A37.14,37.14,0,0,0,280.17,75c2.81,3.16,6.41,5.62,10,8.71-1.06,1.22-2.26,2.69-3.56,4.08a66,66,0,0,0-16.47,29.69c-1.28,5.12-2.05,10-.25,15.17a55.92,55.92,0,0,1,1.45,7.14c-5.7.27-11,.23-16.3.87a104.18,104.18,0,0,0-16,3.1,99.28,99.28,0,0,0-15.19,5.81c-4.86,2.32-9.4,5.31-14.66,8.33C186,146.7,162,150.06,138,158.07a33.67,33.67,0,0,1-4.06-3.5c-7-8.44-16.35-12.41-26.92-13.63-7.94-.91-16-1.39-24-1.71A90.34,90.34,0,0,0,51.83,144a20.18,20.18,0,0,1-3.86.54c-2.84-2.39-2.35-5.45-2.82-8.21-.57-3.37-.79-6.85-1.75-10.11a34.44,34.44,0,0,0-15-20.23c-4.34-2.72-8.63-5.55-12.8-8.24-.58-2.06,1-2.71,1.94-3.56A44.6,44.6,0,0,0,33.4,60.26c.09-3.66-.52-7.4.72-11.56,2.6-.12,5.09-.37,7.58-.33,10.26.16,19.91-2.48,29-6.82a45.12,45.12,0,0,0,19-17c1.5-2.39,3-4.76,4.9-7.64,15.34,9.79,32.21,13.21,49.91,13.77S179.41,29.47,194.84,20.36Z"/> </g> </g> </g>

</svg>