<?xml version="1.0" standalone="no"?><!DOCTYPE svg PUBLIC "-//W3C//DTD SVG 1.1//EN" "http://www.w3.org/Graphics/SVG/1.1/DTD/svg11.dtd"><svg t="1705818171661" class="icon" viewBox="0 0 1024 1024" version="1.1" xmlns="http://www.w3.org/2000/svg" p-id="16367" width="16" height="16" xmlns:xlink="http://www.w3.org/1999/xlink"><path d="M512 1024c282.771 0 512-229.23 512-512s-229.23-512-512-512-512 229.23-512 512 229.23 512 512 512zM432 256c0-44.183 35.817-80 80-80s80 35.817 80 80v31.999c0 44.183-35.817 80-80 80s-80-35.817-80-80v-31.999zM431.999 512c0-44.183 35.817-80 80-80s80 35.817 80 80v256c0 44.183-35.817 80-80 80s-80-35.817-80-80v-256z" p-id="16368" fill="currentColor"></path></svg>