<?xml version="1.0" standalone="no"?><!DOCTYPE svg PUBLIC "-//W3C//DTD SVG 1.1//EN" "http://www.w3.org/Graphics/SVG/1.1/DTD/svg11.dtd"><svg t="1705816188032" class="icon" viewBox="0 0 1024 1024" version="1.1" xmlns="http://www.w3.org/2000/svg" p-id="11440" xmlns:xlink="http://www.w3.org/1999/xlink" width="18" height="18"><path d="M508.746667 299.2L485.333333 452.373333a5.333333 5.333333 0 0 0 4 5.973334l217.386667 53.333333a5.333333 5.333333 0 0 1 2.72 8.693333l-184.906667 208.8a5.333333 5.333333 0 0 1-9.28-4.32l23.413334-153.226666a5.333333 5.333333 0 0 0-4-5.973334L317.173333 512a5.333333 5.333333 0 0 1-2.506666-8.48l184.8-208.693333a5.333333 5.333333 0 0 1 9.28 4.373333z m-329.493334 256l271.253334 66.666667a5.333333 5.333333 0 0 1 4 5.973333l-51.04 335.68a5.333333 5.333333 0 0 0 9.226666 4.32l434.773334-490.346667a5.333333 5.333333 0 0 0-2.72-8.693333l-271.253334-66.666667a5.333333 5.333333 0 0 1-4-5.973333l51.04-335.626667a5.333333 5.333333 0 0 0-9.226666-4.373333L176.533333 546.506667a5.333333 5.333333 0 0 0 2.72 8.693333z" p-id="11441" fill="currentColor"></path></svg>