<!DOCTYPE svg PUBLIC "-//W3C//DTD SVG 1.1//EN" "http://www.w3.org/Graphics/SVG/1.1/DTD/svg11.dtd">

<!-- Uploaded to: SVG Repo, www.svgrepo.com, Transformed by: SVG Repo Mixer Tools -->
<svg width="20px" height="20px" viewBox="0 0 24 24" fill="none" xmlns="http://www.w3.org/2000/svg">

<g id="SVGRepo_bgCarrier" stroke-width="0"/>

<g id="SVGRepo_tracerCarrier" stroke-linecap="round" stroke-linejoin="round"/>

<g id="SVGRepo_iconCarrier"> <path d="M3 6.6C3 6.03995 3 5.75992 3.10899 5.54601C3.20487 5.35785 3.35785 5.20487 3.54601 5.10899C3.75992 5 4.03995 5 4.6 5H10.4C10.9601 5 11.2401 5 11.454 5.10899C11.6422 5.20487 11.7951 5.35785 11.891 5.54601C12 5.75992 12 6.03995 12 6.6V8.4C12 8.96005 12 9.24008 11.891 9.45399C11.7951 9.64215 11.6422 9.79513 11.454 9.89101C11.2401 10 10.9601 10 10.4 10H4.6C4.03995 10 3.75992 10 3.54601 9.89101C3.35785 9.79513 3.20487 9.64215 3.10899 9.45399C3 9.24008 3 8.96005 3 8.4V6.6Z" stroke="currentColor" stroke-width="2" stroke-linecap="round" stroke-linejoin="round"/> <path d="M5 15.6C5 15.0399 5 14.7599 5.10899 14.546C5.20487 14.3578 5.35785 14.2049 5.54601 14.109C5.75992 14 6.03995 14 6.6 14H10.4C10.9601 14 11.2401 14 11.454 14.109C11.6422 14.2049 11.7951 14.3578 11.891 14.546C12 14.7599 12 15.0399 12 15.6V17.4C12 17.9601 12 18.2401 11.891 18.454C11.7951 18.6422 11.6422 18.7951 11.454 18.891C11.2401 19 10.9601 19 10.4 19H6.6C6.03995 19 5.75992 19 5.54601 18.891C5.35785 18.7951 5.20487 18.6422 5.10899 18.454C5 18.2401 5 17.9601 5 17.4V15.6Z" stroke="currentColor" stroke-width="2" stroke-linecap="round" stroke-linejoin="round"/> <path d="M16 6.6C16 6.03995 16 5.75992 16.109 5.54601C16.2049 5.35785 16.3578 5.20487 16.546 5.10899C16.7599 5 17.0399 5 17.6 5H19.4C19.9601 5 20.2401 5 20.454 5.10899C20.6422 5.20487 20.7951 5.35785 20.891 5.54601C21 5.75992 21 6.03995 21 6.6V14.4C21 14.9601 21 15.2401 20.891 15.454C20.7951 15.6422 20.6422 15.7951 20.454 15.891C20.2401 16 19.9601 16 19.4 16H17.6C17.0399 16 16.7599 16 16.546 15.891C16.3578 15.7951 16.2049 15.6422 16.109 15.454C16 15.2401 16 14.9601 16 14.4V6.6Z" stroke="currentColor" stroke-width="2" stroke-linecap="round" stroke-linejoin="round"/> </g>

</svg>