<?xml version="1.0" standalone="no"?><!DOCTYPE svg PUBLIC "-//W3C//DTD SVG 1.1//EN" "http://www.w3.org/Graphics/SVG/1.1/DTD/svg11.dtd"><svg t="1705819674136" class="icon" viewBox="0 0 1024 1024" version="1.1" xmlns="http://www.w3.org/2000/svg" p-id="16477" xmlns:xlink="http://www.w3.org/1999/xlink" width="16" height="16"><path d="M731.428571 905.216c29.147429 0 50.139429-21.430857 50.139429-50.139429V171.501714c0-28.708571-20.992-52.717714-50.998857-52.717714-20.992 0-34.706286 10.294857-57.856 30.866286l-201.435429 178.706285c-2.56 2.56-6.418286 3.858286-10.697143 3.858286h-127.286857c-60.873143 0-90.88 30.427429-90.88 95.140572V597.942857c0 64.731429 30.006857 95.140571 90.88 95.140572h127.268572c4.297143 0 8.155429 1.28 10.715428 3.858285L672.731429 877.348571c20.992 18.870857 37.723429 27.867429 58.715428 27.867429z m-24.868571-90.422857c-2.139429 0-4.699429-1.28-7.277714-3.858286L509.44 639.926857c-10.276571-9.435429-18.834286-11.574857-30.427429-11.574857h-142.701714c-16.713143 0-24.868571-7.716571-24.868571-24.868571v-181.705143c0-16.713143 8.155429-24.850286 24.868571-24.850286h142.701714c11.574857 0 19.712-1.718857 30.427429-11.574857l189.860571-172.288c2.139429-1.700571 4.717714-3.419429 7.296-3.419429 3.84 0 5.997714 2.56 5.997715 5.997715v592.713142c0 3.858286-2.139429 6.436571-5.997715 6.436572z" p-id="16478" fill="currentColor"></path></svg>