<!DOCTYPE svg PUBLIC "-//W3C//DTD SVG 1.1//EN" "http://www.w3.org/Graphics/SVG/1.1/DTD/svg11.dtd">

<!-- Uploaded to: SVG Repo, www.svgrepo.com, Transformed by: SVG Repo Mixer Tools -->
<svg width="20px" height="20px" viewBox="0 0 24 24" xmlns="http://www.w3.org/2000/svg" fill="none">

<g id="SVGRepo_bgCarrier" stroke-width="0"/>

<g id="SVGRepo_tracerCarrier" stroke-linecap="round" stroke-linejoin="round"/>

<g id="SVGRepo_iconCarrier">

<path stroke="currentColor" stroke-linecap="round" stroke-linejoin="round" stroke-width="2" d="M20 10h-8a2 2 0 0 0-2 2v6a2 2 0 0 0 2 2h.93a2 2 0 0 1 1.664.89l.574.862a1 1 0 0 0 1.664 0l.574-.861A2 2 0 0 1 19.07 20H20a2 2 0 0 0 2-2v-6a2 2 0 0 0-2-2zm-6-3V4a2 2 0 0 0-2-2H4a2 2 0 0 0-2 2v6a2 2 0 0 0 2 2h.93a2 2 0 0 1 1.664.89L7 13.5"/>

</g>

</svg>