<!DOCTYPE svg PUBLIC "-//W3C//DTD SVG 1.1//EN" "http://www.w3.org/Graphics/SVG/1.1/DTD/svg11.dtd">

<!-- Uploaded to: SVG Repo, www.svgrepo.com, Transformed by: SVG Repo Mixer Tools -->
<svg height="18px" width="18px" version="1.1" id="_x32_" xmlns="http://www.w3.org/2000/svg" xmlns:xlink="http://www.w3.org/1999/xlink" viewBox="0 0 512 512" xml:space="preserve" fill="currentColor">

<g id="SVGRepo_bgCarrier" stroke-width="0"/>

<g id="SVGRepo_tracerCarrier" stroke-linecap="round" stroke-linejoin="round"/>

<g id="SVGRepo_iconCarrier"> <g> <path fill="currentColor"  d="M133.048,121.218c-1.663,0-3.296,0.337-4.841,0.996c-20.036,8.606-36.119,24.218-45.306,43.973 c-1.381,2.966-1.522,6.3-0.4,9.375c1.122,3.083,3.382,5.546,6.371,6.936c1.64,0.761,3.373,1.146,5.17,1.146 c4.762,0,9.14-2.794,11.14-7.116c6.646-14.27,18.256-25.544,32.715-31.726c3.013-1.294,5.342-3.68,6.567-6.732 c1.216-3.044,1.177-6.386-0.118-9.398C142.408,124.144,137.967,121.218,133.048,121.218z"/> <path  fill="currentColor" d="M325.854,203.342c-0.016-89.821-73.11-162.915-162.932-162.931C73.102,40.427,0.015,113.521,0,203.342 c0.015,89.821,73.102,162.908,162.923,162.924C252.744,366.25,325.838,293.163,325.854,203.342z M162.923,334.344 c-34.974-0.008-67.869-13.636-92.629-38.372c-24.736-24.768-38.364-57.664-38.372-92.63c0.008-34.982,13.635-67.877,38.372-92.63 c24.775-24.743,57.671-38.371,92.629-38.379c34.967,0.008,67.862,13.636,92.63,38.379c24.744,24.768,38.372,57.664,38.38,92.63 c-0.008,34.959-13.635,67.854-38.38,92.63C230.793,320.708,197.898,334.336,162.923,334.344z"/> <path  fill="currentColor" d="M427.458,69.815c-46.6,0.008-84.532,37.932-84.549,84.541c0.016,46.601,37.948,84.525,84.549,84.541 c46.601-0.016,84.526-37.94,84.542-84.541C511.984,107.747,474.06,69.823,427.458,69.815z M464.661,191.575 c-9.963,9.924-23.175,15.392-37.203,15.4c-14.035-0.008-27.247-5.476-37.218-15.408c-9.924-9.963-15.392-23.175-15.4-37.21 c0.008-14.035,5.476-27.246,15.408-37.219c9.963-9.924,23.175-15.392,37.21-15.4c14.028,0.008,27.24,5.477,37.211,15.408 c9.924,9.964,15.4,23.184,15.408,37.211C480.07,168.383,474.593,181.603,464.661,191.575z"/> <path  fill="currentColor" d="M349.076,251.325c-2.683,10.434-6.261,20.664-10.654,30.487c16.146,2.808,30.761,10.379,42.428,22.03 c15.024,15.047,23.292,35.029,23.301,56.258c-0.008,21.23-8.277,41.212-23.301,56.258c-15.048,15.024-35.03,23.301-56.258,23.309 c-21.23-0.008-41.212-8.284-56.266-23.309c-11.015-11.03-18.421-24.822-21.559-40.042c-9.666,4.691-19.746,8.574-30.056,11.572 c12.655,49.386,56.699,83.686,107.882,83.701c61.46-0.015,111.473-50.029,111.489-111.489 C436.065,308.038,399.608,262.661,349.076,251.325z"/> </g> </g>

</svg>