<!DOCTYPE svg PUBLIC "-//W3C//DTD SVG 1.1//EN" "http://www.w3.org/Graphics/SVG/1.1/DTD/svg11.dtd">

<!-- Uploaded to: SVG Repo, www.svgrepo.com, Transformed by: SVG Repo Mixer Tools -->
<svg width="18px" height="18px" viewBox="0 0 24 24" fill="none" xmlns="http://www.w3.org/2000/svg" stroke="currentColor">

<g id="SVGRepo_bgCarrier" stroke-width="0"/>

<g id="SVGRepo_tracerCarrier" stroke-linecap="round" stroke-linejoin="round"/>

<g id="SVGRepo_iconCarrier"> <path d="M11.9994 3V7M11.9994 7V17M11.9994 7L8.99943 4M11.9994 7L14.9994 4M11.9994 17V21M11.9994 17L8.99943 20M11.9994 17L14.9994 20M4.20624 7.49999L7.67034 9.49999M7.67034 9.49999L16.3306 14.5M7.67034 9.49999L3.57227 10.5981M7.67034 9.49999L6.57227 5.40191M16.3306 14.5L19.7947 16.5M16.3306 14.5L17.4287 18.5981M16.3306 14.5L20.4287 13.4019M4.2067 16.5L7.6708 14.5M7.6708 14.5L16.3311 9.49999M7.6708 14.5L3.57273 13.4019M7.6708 14.5L6.57273 18.5981M16.3311 9.49999L19.7952 7.49999M16.3311 9.49999L17.4291 5.40192M16.3311 9.49999L20.4291 10.5981" stroke="currentColor" stroke-width="2" stroke-linecap="round" stroke-linejoin="round"/> </g>

</svg>