<!DOCTYPE svg PUBLIC "-//W3C//DTD SVG 1.1//EN" "http://www.w3.org/Graphics/SVG/1.1/DTD/svg11.dtd">

<!-- Uploaded to: SVG Repo, www.svgrepo.com, Transformed by: SVG Repo Mixer Tools -->
<svg fill="currentColor" width="20px" height="20px" viewBox="0 0 32 32" version="1.1" xmlns="http://www.w3.org/2000/svg">

<g id="SVGRepo_bgCarrier" stroke-width="0"/>

<g id="SVGRepo_tracerCarrier" stroke-linecap="round" stroke-linejoin="round"/>

<g id="SVGRepo_iconCarrier"> <title>sun</title> <path d="M23.395 14.106c2.958-1.383 2.828-6.068 5.758-5.884-4.125-2.74-4.019 3.106-9.089 1.235 1.107-3.068-2.292-6.286-0.091-8.227-4.855 0.979-0.645 5.039-5.555 7.301-1.384-2.958-6.068-2.828-5.884-5.758-2.74 4.125 3.106 4.019 1.235 9.089-3.068-1.107-6.286 2.292-8.227 0.091 0.979 4.855 5.039 0.645 7.301 5.555-2.958 1.384-2.828 6.068-5.758 5.884 4.125 2.74 4.019-3.106 9.089-1.235-1.107 3.068 2.292 6.286 0.091 8.227 4.855-0.979 0.645-5.039 5.555-7.301 1.384 2.958 6.068 2.828 5.884 5.758 2.74-4.125-3.106-4.019-1.235-9.089 3.068 1.107 6.286-2.292 8.226-0.091-0.979-4.855-5.039-0.645-7.301-5.555z"/> </g>

</svg>