<!DOCTYPE svg PUBLIC "-//W3C//DTD SVG 1.1//EN" "http://www.w3.org/Graphics/SVG/1.1/DTD/svg11.dtd">

<!-- Uploaded to: SVG Repo, www.svgrepo.com, Transformed by: SVG Repo Mixer Tools -->
<svg width="26px" height="26px" viewBox="0 0 24 24" fill="none" xmlns="http://www.w3.org/2000/svg">

<g id="SVGRepo_bgCarrier" stroke-width="0"/>

<g id="SVGRepo_tracerCarrier" stroke-linecap="round" stroke-linejoin="round"/>

<g id="SVGRepo_iconCarrier"> <path d="M10.5 2.0028C9.82495 2.01194 9.4197 2.05103 9.09202 2.21799C8.71569 2.40973 8.40973 2.71569 8.21799 3.09202C8.05103 3.4197 8.01194 3.82495 8.0028 4.5M19.5 2.0028C20.1751 2.01194 20.5803 2.05103 20.908 2.21799C21.2843 2.40973 21.5903 2.71569 21.782 3.09202C21.949 3.4197 21.9881 3.82494 21.9972 4.49999M21.9972 13.5C21.9881 14.175 21.949 14.5803 21.782 14.908C21.5903 15.2843 21.2843 15.5903 20.908 15.782C20.5803 15.949 20.1751 15.9881 19.5 15.9972M22 7.99999V9.99999M14.0001 2H16M5.2 22H12.8C13.9201 22 14.4802 22 14.908 21.782C15.2843 21.5903 15.5903 21.2843 15.782 20.908C16 20.4802 16 19.9201 16 18.8V11.2C16 10.0799 16 9.51984 15.782 9.09202C15.5903 8.71569 15.2843 8.40973 14.908 8.21799C14.4802 8 13.9201 8 12.8 8H5.2C4.0799 8 3.51984 8 3.09202 8.21799C2.71569 8.40973 2.40973 8.71569 2.21799 9.09202C2 9.51984 2 10.0799 2 11.2V18.8C2 19.9201 2 20.4802 2.21799 20.908C2.40973 21.2843 2.71569 21.5903 3.09202 21.782C3.51984 22 4.07989 22 5.2 22Z" stroke="#66CC89" stroke-width="2" stroke-linecap="round" stroke-linejoin="round"/> </g>

</svg>