<!DOCTYPE svg PUBLIC "-//W3C//DTD SVG 1.1//EN" "http://www.w3.org/Graphics/SVG/1.1/DTD/svg11.dtd">

<!-- Uploaded to: SVG Repo, www.svgrepo.com, Transformed by: SVG Repo Mixer Tools -->
<svg width="26px" height="26px" viewBox="0 0 24 24" fill="none" xmlns="http://www.w3.org/2000/svg">

<g id="SVGRepo_bgCarrier" stroke-width="0"/>

<g id="SVGRepo_tracerCarrier" stroke-linecap="round" stroke-linejoin="round"/>

<g id="SVGRepo_iconCarrier"> <path d="M3.5 3.5C3.5 2.94772 3.94772 2.5 4.5 2.5H19.5C20.0523 2.5 20.5 2.94772 20.5 3.5V6.5C20.5 7.05228 20.0523 7.5 19.5 7.5H18.5C17.9477 7.5 17.5 7.05228 17.5 6.5V5.5H13.5V18.5H15.5C16.0523 18.5 16.5 18.9477 16.5 19.5V20.5C16.5 21.0523 16.0523 21.5 15.5 21.5H8.5C7.94772 21.5 7.5 21.0523 7.5 20.5V19.5C7.5 18.9477 7.94772 18.5 8.5 18.5H10.5V5.5H6.5V6.5C6.5 7.05228 6.05228 7.5 5.5 7.5H4.5C3.94772 7.5 3.5 7.05228 3.5 6.5V3.5Z" fill="#65CC8A"/> </g>

</svg>