<!DOCTYPE svg PUBLIC "-//W3C//DTD SVG 1.1//EN" "http://www.w3.org/Graphics/SVG/1.1/DTD/svg11.dtd">

<!-- Uploaded to: SVG Repo, www.svgrepo.com, Transformed by: SVG Repo Mixer Tools -->
<svg fill="currentColor" width="20px" height="20px" viewBox="0 0 32 32" version="1.1" xmlns="http://www.w3.org/2000/svg" xmlns:xlink="http://www.w3.org/1999/xlink" xml:space="preserve" xmlns:serif="http://www.serif.com/" style="fill-rule:evenodd;clip-rule:evenodd;stroke-linejoin:round;stroke-miterlimit:2;">

<g id="SVGRepo_bgCarrier" stroke-width="0"/>

<g id="SVGRepo_tracerCarrier" stroke-linecap="round" stroke-linejoin="round"/>

<g id="SVGRepo_iconCarrier">

<path d="M4,29.987l24,0c0.828,0 1.5,-0.672 1.5,-1.5c0,-0.827 -0.672,-1.5 -1.5,-1.5l-24,0c-0.828,0 -1.5,0.673 -1.5,1.5c0,0.828 0.672,1.5 1.5,1.5Z"/>

<path d="M9.138,22.244c1.323,0.328 2.775,0.118 3.995,-0.702l9.873,-6.712c0.458,-0.308 0.58,-0.929 0.273,-1.388l-6.717,-10c-0.308,-0.458 -0.929,-0.58 -1.388,-0.272c0,-0 -6.027,4.048 -9.961,6.691c-2.293,1.539 -2.903,4.646 -1.363,6.938c0.725,1.08 1.53,2.279 2.256,3.359c0.738,1.099 1.836,1.812 3.032,2.086Zm11.448,-9.223l-15.418,0c0.207,-0.591 0.599,-1.124 1.16,-1.5c-0,-0 9.131,-6.133 9.131,-6.133l5.127,7.633Z"/>

<path d="M26.339,15.455c-0.185,-0.284 -0.5,-0.455 -0.839,-0.455c-0.339,-0 -0.654,0.171 -0.839,0.455c0,0 -1.274,1.965 -2.039,3.732c-0.379,0.876 -0.622,1.717 -0.622,2.313c-0,1.932 1.568,3.5 3.5,3.5c1.932,0 3.5,-1.568 3.5,-3.5c-0,-0.596 -0.243,-1.437 -0.622,-2.313c-0.765,-1.767 -2.039,-3.732 -2.039,-3.732Z"/>

</g>

</svg>