<?xml version="1.0" standalone="no"?><!DOCTYPE svg PUBLIC "-//W3C//DTD SVG 1.1//EN" "http://www.w3.org/Graphics/SVG/1.1/DTD/svg11.dtd"><svg t="1702136520403" class="icon" viewBox="0 0 1024 1024" version="1.1" xmlns="http://www.w3.org/2000/svg" p-id="1624" xmlns:xlink="http://www.w3.org/1999/xlink" width="15" height="15"><path d="M0 0h192v192H0z" p-id="1625" fill="CURRENTCOLOR"></path><path d="M192 192h192v192H192z" opacity=".6" p-id="1626" fill="CURRENTCOLOR"></path><path d="M384 0h192v192H384z" opacity=".8" p-id="1627" fill="CURRENTCOLOR"></path><path d="M576 192h192v192H576z" opacity=".4" p-id="1628" fill="CURRENTCOLOR"></path><path d="M768 0h192v192h-192z" opacity=".6" p-id="1629" fill="CURRENTCOLOR"></path><path d="M0 384h192v192H0z" opacity=".8" p-id="1630" fill="CURRENTCOLOR"></path><path d="M192 576h192v192H192zM384 384h192v192H384z" opacity=".4" p-id="1631" fill="CURRENTCOLOR"></path><path d="M576 576h192v192H576zM768 384h192v192h-192z" opacity=".2" p-id="1632" fill="CURRENTCOLOR"></path><path d="M0 768h192v192H0z" opacity=".4" p-id="1633" fill="CURRENTCOLOR"></path><path d="M384 768h192v192H384z" opacity=".2" p-id="1634" fill="CURRENTCOLOR"></path><path d="M768 768h192v192h-192z" opacity=".1" p-id="1635" fill="CURRENTCOLOR"></path></svg>