<!DOCTYPE svg PUBLIC "-//W3C//DTD SVG 1.1//EN" "http://www.w3.org/Graphics/SVG/1.1/DTD/svg11.dtd">

<!-- Uploaded to: SVG Repo, www.svgrepo.com, Transformed by: SVG Repo Mixer Tools -->
<svg width="36px" height="36px" viewBox="0 0 76 76" xmlns="http://www.w3.org/2000/svg" xmlns:xlink="http://www.w3.org/1999/xlink" version="1.1" baseProfile="full" enable-background="new 0 0 76.00 76.00" xml:space="preserve" fill="#66CC89">

<g id="SVGRepo_bgCarrier" stroke-width="0"/>

<g id="SVGRepo_tracerCarrier" stroke-linecap="round" stroke-linejoin="round"/>

<g id="SVGRepo_iconCarrier"> <path fill="#66CC89" fill-opacity="1" stroke-width="0.2" stroke-linejoin="round" d="M 50.6667,25.3333L 50.6667,50.6667L 25.3333,50.6667L 25.3333,25.3333L 50.6667,25.3333 Z M 17.4169,17.417L 19.7919,17.417L 17.4169,19.7921L 17.4169,17.417 Z M 27.7088,17.417L 17.4168,27.709L 17.4168,21.3752L 21.3751,17.417L 27.7088,17.417 Z M 36.417,18.6045L 36.4168,23.7503L 30.8754,23.7503L 36.0213,18.6045L 36.417,18.6045 Z M 18.6043,36.4173L 18.6043,36.0216L 23.7502,30.8755L 23.7502,36.417L 18.6043,36.4173 Z M 17.4168,29.2924L 29.2919,17.417L 35.6255,17.417L 29.2922,23.7503L 23.7502,23.7503L 23.7502,29.2923L 17.4168,35.6257L 17.4168,29.2924 Z M 58.5833,58.5833L 56.2082,58.5833L 58.5833,56.2082L 58.5833,58.5833 Z M 48.2914,58.5833L 58.5833,48.2913L 58.5833,54.6251L 54.6251,58.5833L 48.2914,58.5833 Z M 39.5832,57.3958L 39.5833,52.25L 45.1248,52.25L 39.9788,57.3958L 39.5832,57.3958 Z M 57.3959,39.583L 57.3959,39.9787L 52.25,45.1248L 52.25,39.5833L 57.3959,39.583 Z M 58.5833,46.708L 46.7082,58.5833L 40.3747,58.5833L 46.708,52.25L 52.25,52.25L 52.25,46.708L 58.5833,40.3746L 58.5833,46.708 Z "/> </g>

</svg>