<!DOCTYPE svg PUBLIC "-//W3C//DTD SVG 1.1//EN" "http://www.w3.org/Graphics/SVG/1.1/DTD/svg11.dtd">

<!-- Uploaded to: SVG Repo, www.svgrepo.com, Transformed by: SVG Repo Mixer Tools -->
<svg width="36px" height="36px" viewBox="0 0 76 76" xmlns="http://www.w3.org/2000/svg" xmlns:xlink="http://www.w3.org/1999/xlink" version="1.1" baseProfile="full" enable-background="new 0 0 76.00 76.00" xml:space="preserve" fill="#66CC89" stroke="#66CC89">

<g id="SVGRepo_bgCarrier" stroke-width="0"/>

<g id="SVGRepo_tracerCarrier" stroke-linecap="round" stroke-linejoin="round"/>

<g id="SVGRepo_iconCarrier"> <path fill="#66CC89" fill-opacity="1" stroke-width="0.2" stroke-linejoin="round" d="M 50.6667,25.3333L 50.6667,41.1667L 41.1667,41.1667L 41.1667,50.6667L 25.3333,50.6667L 25.3333,34.8333L 34.8333,34.8333L 34.8333,25.3333L 50.6667,25.3333 Z M 14.25,14.25L 16.6251,14.25L 14.25,16.6251L 14.25,14.25 Z M 24.542,14.2501L 14.25,24.5421L 14.25,18.2083L 18.2082,14.25L 24.542,14.2501 Z M 15.0415,33.2503L 33.25,15.0419L 33.2499,21.3759L 21.3751,33.2503L 15.0415,33.2503 Z M 14.25,26.1254L 26.1251,14.25L 32.4586,14.25L 14.25,32.4587L 14.25,26.1254 Z M 22.9584,33.2503L 33.25,22.9585L 33.25,29.2918L 29.2922,33.2503L 22.9584,33.2503 Z M 61.75,61.75L 59.3749,61.75L 61.75,59.3749L 61.75,61.75 Z M 51.458,61.75L 61.75,51.458L 61.75,57.7918L 57.7918,61.75L 51.458,61.75 Z M 60.9584,42.7497L 42.75,60.9581L 42.75,54.6241L 54.6249,42.7497L 60.9584,42.7497 Z M 61.75,49.8746L 49.8749,61.75L 43.5414,61.75L 61.75,43.5413L 61.75,49.8746 Z M 53.0415,42.7497L 42.75,53.0415L 42.75,46.7082L 46.7078,42.7497L 53.0415,42.7497 Z "/> </g>

</svg>