<!DOCTYPE svg PUBLIC "-//W3C//DTD SVG 1.1//EN" "http://www.w3.org/Graphics/SVG/1.1/DTD/svg11.dtd">

<!-- Uploaded to: SVG Repo, www.svgrepo.com, Transformed by: SVG Repo Mixer Tools -->
<svg width="36px" height="36px" viewBox="0 0 76 76" xmlns="http://www.w3.org/2000/svg" xmlns:xlink="http://www.w3.org/1999/xlink" version="1.1" baseProfile="full" enable-background="new 0 0 76.00 76.00" xml:space="preserve" fill="#66CC89">

<g id="SVGRepo_bgCarrier" stroke-width="0"/>

<g id="SVGRepo_tracerCarrier" stroke-linecap="round" stroke-linejoin="round"/>

<g id="SVGRepo_iconCarrier"> <path fill="#66CC89" fill-opacity="1" stroke-width="0.2" stroke-linejoin="round" d="M 19,50.6667L 19,19L 50.6667,19L 50.6668,28.5003L 28.5,28.5002L 28.5,50.6667L 19,50.6667 Z M 58.5835,58.5836L 53.0415,58.5833L 58.5833,53.0416L 58.5835,58.5836 Z M 58.5833,45.1249L 58.5833,51.4585L 51.4584,58.5833L 45.1249,58.5833L 58.5833,45.1249 Z M 58.5833,35.6251L 35.6251,58.5834L 30.0833,58.5834L 30.0833,57.7918L 57.7918,30.0834L 58.5835,30.0836L 58.5833,35.6251 Z M 58.5833,43.5418L 43.5418,58.5833L 37.2082,58.5833L 58.5833,37.2082L 58.5833,43.5418 Z M 56.2084,30.0833L 30.0833,56.2085L 30.0833,49.8749L 49.8749,30.0834L 56.2084,30.0833 Z M 48.2918,30.0834L 30.0833,48.2918L 30.0833,41.9582L 41.9582,30.0834L 48.2918,30.0834 Z M 40.3751,30.0833L 30.0833,40.3751L 30.0833,34.0416L 34.0415,30.0833L 40.3751,30.0833 Z "/> </g>

</svg>