<?xml version="1.0" standalone="no"?><!DOCTYPE svg PUBLIC "-//W3C//DTD SVG 1.1//EN" "http://www.w3.org/Graphics/SVG/1.1/DTD/svg11.dtd"><svg t="1702137196077" class="icon" viewBox="0 0 1024 1024" version="1.1" xmlns="http://www.w3.org/2000/svg" p-id="4092" xmlns:xlink="http://www.w3.org/1999/xlink" width="26" height="26"><path d="M512 0a170.666667 170.666667 0 0 1 170.569143 164.815238L682.666667 170.666667v146.285714h146.285714a146.285714 146.285714 0 0 1 146.18819 140.8L975.238095 463.238095v24.380953a146.334476 146.334476 0 0 1-97.523809 137.947428V877.714286a146.285714 146.285714 0 0 1-140.8 146.18819L731.428571 1024H292.571429a146.285714 146.285714 0 0 1-146.188191-140.8L146.285714 877.714286V625.590857a146.358857 146.358857 0 0 1-97.426285-132.486095L48.761905 487.619048v-24.380953a146.285714 146.285714 0 0 1 140.8-146.18819L195.047619 316.952381h146.285714V170.666667A170.666667 170.666667 0 0 1 506.148571 0.097524L512 0z m268.190476 633.904762H243.809524v243.809524a48.761905 48.761905 0 0 0 41.374476 48.201143l3.754667 0.438857L292.571429 926.47619h24.380952v-46.567619a48.761905 48.761905 0 1 1 97.523809 0V926.47619l48.761905 0.024381v-133.022476a48.761905 48.761905 0 1 1 97.52381 0V926.47619h48.761905v-219.428571a48.761905 48.761905 0 1 1 97.523809 0v219.428571h24.380952a48.761905 48.761905 0 0 0 48.64-45.104761L780.190476 877.714286V633.904762z m48.761905-219.428572H195.047619a48.761905 48.761905 0 0 0-48.64 45.104762L146.285714 463.238095v24.380953a48.761905 48.761905 0 0 0 45.104762 48.64L195.047619 536.380952h633.904762a48.761905 48.761905 0 0 0 48.64-45.104762L877.714286 487.619048v-24.380953a48.761905 48.761905 0 0 0-48.761905-48.761905zM512 97.52381a73.142857 73.142857 0 0 0-73.020952 68.851809L438.857143 170.666667v146.285714h146.285714V170.666667a73.142857 73.142857 0 0 0-64.609524-72.655238l-4.242285-0.365715L512 97.52381z" fill="#65CC8A" p-id="4093"></path></svg>