<svg
  className="icon"
  viewBox="0 0 1024 1024"
  version="1.1"
  xmlns="http://www.w3.org/2000/svg"
  p-id="2771"
  width="30"
  height="30"
>
  <path
    d="M511.998194 0C229.227811 0 0.000903 229.228714 0.000903 511.999097 0.000903 794.767674 229.227811 1023.998194 511.998194 1023.998194c282.772189 0 511.999097-229.23052 511.999097-511.999097C1023.999097 229.228714 794.772189 0 511.998194 0z m4.576952 727.549335H197.680437V308.279575h310.873302v70.908439H282.319732v92.982208H492.808952v70.657374H282.319732v114.062558h234.255414v70.659181z m310.871496 0h-80.351338v-155.002256c0-32.799081-1.726743-54.027541-5.129654-63.654674a44.564774 44.564774 0 0 0-16.761687-22.435012 47.702172 47.702172 0 0 0-27.891592-8.021407c-13.91509 0-26.35992 3.803891-37.450088 11.458636-11.057656 7.613202-18.670858 17.715369-22.731232 30.308309-4.10553 12.594746-6.153779 35.880486-6.153779 69.783166v137.565044h-80.353143V423.819618h74.641887v44.620767c26.506224-34.336171 59.852589-51.469939 100.080638-51.469939 17.756912 0 33.935191 3.184359 48.610699 9.547659 14.688151 6.413874 25.812637 14.536429 33.321078 24.457975 7.542759 9.921546 12.811492 21.159824 15.73395 33.75457 2.933295 12.594746 4.436067 30.602722 4.436067 54.074503l-0.001806 188.744182z"
    fill="#231815"
    p-id="2772"
  ></path>
</svg>
