<!DOCTYPE svg PUBLIC "-//W3C//DTD SVG 1.1//EN" "http://www.w3.org/Graphics/SVG/1.1/DTD/svg11.dtd">
<!-- Uploaded to: SVG Repo, www.svgrepo.com, Transformed by: SVG Repo Mixer Tools -->
<svg version="1.1" id="Layer_1" xmlns="http://www.w3.org/2000/svg" xmlns:xlink="http://www.w3.org/1999/xlink" viewBox="0 0 512 512" xml:space="preserve" width="64px" height="64px" fill="#000000">
<g id="SVGRepo_bgCarrier" stroke-width="0"/>
<g id="SVGRepo_tracerCarrier" stroke-linecap="round" stroke-linejoin="round"/>
<g id="SVGRepo_iconCarrier"> <polygon style="fill:#00954A;" points="504.082,303.505 504.082,414.351 324.091,304.35 324.619,303.505 398.515,234.887 "/> <polygon style="fill:#0EB14C;" points="504.082,414.351 504.082,451.299 7.918,451.299 7.918,377.402 219.052,240.165 324.091,304.35 "/> <polygon style="fill:#0071BC;" points="504.082,60.701 504.082,303.505 398.515,234.887 324.619,303.505 324.091,304.35 219.052,240.165 7.918,377.402 7.918,60.701 "/> <polygon style="fill:#008647;" points="504.082,371.515 355.794,274.557 324.619,303.505 324.091,304.35 504.082,414.351 "/> <polygon style="fill:#00AB4F;" points="504.082,451.299 504.082,414.351 324.091,304.35 219.052,240.165 180.422,265.274 496.315,451.299 "/> <polygon style="fill:#0089CC;" points="7.918,60.701 7.918,377.402 219.052,240.165 256,262.743 256,60.701 "/> <path style="fill:#FFD311;" d="M306.144,102.928c30.614,0,55.423,24.808,55.423,55.423s-24.808,55.423-55.423,55.423 s-55.423-24.808-55.423-55.423S275.53,102.928,306.144,102.928z"/> <path style="fill:#FABB1B;" d="M277.166,111.299c-15.814,9.76-26.445,27.099-26.445,47.051c0,30.614,24.808,55.423,55.423,55.423 c14.673,0,27.919-5.805,37.833-15.11C311.607,179.552,287.312,148.41,277.166,111.299z"/> <path style="fill:#F1F2F2;" d="M155.711,139.876c14.568,0,26.392,11.824,26.392,26.392s-11.824,26.392-26.392,26.392 s-55.845,0-68.619,0c-14.568,0-26.392-11.824-26.392-26.392s11.824-26.392,26.392-26.392c0.211,0,0.317,0,0.528,0.106 c2.428-12.14,13.09-21.219,25.864-21.219c14.568,0,26.392,11.823,26.392,26.392v0.106 C144.31,141.988,149.694,139.876,155.711,139.876z"/> <path d="M0,52.784v406.433h512V52.784H0z M496.165,68.619v220.297l-98.512-64.033l-74.788,69.445l-103.944-63.522L15.835,362.813 V68.619H496.165z M496.165,400.233L336.9,302.905l62.477-58.015l96.788,62.913V400.233z M15.835,443.381v-61.683l203.346-132.175 l100.78,61.581l176.204,107.686v24.591H15.835z"/> <path d="M306.144,221.691c34.926,0,63.34-28.414,63.34-63.34s-28.414-63.34-63.34-63.34s-63.34,28.414-63.34,63.34 S271.219,221.691,306.144,221.691z M306.144,110.845c26.194,0,47.505,21.311,47.505,47.505s-21.311,47.505-47.505,47.505 s-47.505-21.311-47.505-47.505S279.95,110.845,306.144,110.845z"/> <path d="M87.093,200.577h68.619c18.918,0,34.309-15.392,34.309-34.309s-15.392-34.309-34.309-34.309 c-3.388,0-6.733,0.517-9.961,1.525c-4.785-13.191-17.443-22.639-32.265-22.639c-14.154,0-26.688,8.76-31.827,21.543 c-16.344,2.614-28.874,16.81-28.874,33.88C52.784,185.186,68.175,200.577,87.093,200.577z M85.654,147.851l7.698,3.849l2.033-10.165 c1.721-8.607,9.333-14.854,18.099-14.854c10.186,0,18.474,8.288,18.474,18.474v15.791l12.619-9.314 c3.45-2.546,7.195-3.836,11.133-3.836c10.186,0,18.474,8.288,18.474,18.474c0,10.186-8.288,18.474-18.474,18.474H87.093 c-10.186,0-18.474-8.288-18.474-18.474C68.619,156.572,76.126,148.596,85.654,147.851z"/> <g> <rect x="204.892" y="329.91" transform="matrix(-0.8526 -0.5226 0.5226 -0.8526 380.8123 783.0786)" style="fill:#FFFFFF;" width="191.924" height="15.835"/> <rect x="374.107" y="314.087" transform="matrix(-0.8396 -0.5433 0.5433 -0.8396 611.5624 824.6218)" style="fill:#FFFFFF;" width="106.882" height="15.836"/> <rect x="414.351" y="100.289" style="fill:#FFFFFF;" width="36.948" height="15.835"/> <rect x="440.742" y="137.237" style="fill:#FFFFFF;" width="36.948" height="15.835"/> <rect x="39.588" y="95.01" style="fill:#FFFFFF;" width="36.948" height="15.835"/> <rect x="197.938" y="105.567" style="fill:#FFFFFF;" width="36.948" height="15.835"/> <rect x="39.588" y="274.474" style="fill:#FFFFFF;" width="36.948" height="15.835"/> <rect x="92.371" y="232.247" style="fill:#FFFFFF;" width="36.948" height="15.835"/> <rect x="387.959" y="168.907" style="fill:#FFFFFF;" width="36.948" height="15.835"/> </g> </g>
</svg>